<mxfile host="Electron" modified="2023-11-09T00:23:20.363Z" agent="Mozilla/5.0 (Windows NT 10.0; Win64; x64) AppleWebKit/537.36 (KHTML, like Gecko) draw.io/22.0.3 Chrome/114.0.5735.289 Electron/25.8.4 Safari/537.36" etag="DAIixiX4fholN1AL-_2_" version="22.0.3" type="device">
  <diagram name="Página-1" id="IEab-QamOW3exRwG7Yyj">
    <mxGraphModel dx="1102" dy="1997" grid="1" gridSize="10" guides="1" tooltips="1" connect="1" arrows="1" fold="1" page="1" pageScale="1" pageWidth="827" pageHeight="1169" math="0" shadow="0">
      <root>
        <mxCell id="0" />
        <mxCell id="1" parent="0" />
        <mxCell id="-Ae5Qsa0rawJSdzD_BRz-133" style="edgeStyle=orthogonalEdgeStyle;rounded=0;orthogonalLoop=1;jettySize=auto;html=1;exitX=0;exitY=0.25;exitDx=0;exitDy=0;" edge="1" parent="1" source="-Ae5Qsa0rawJSdzD_BRz-3">
          <mxGeometry relative="1" as="geometry">
            <mxPoint x="330" y="845" as="targetPoint" />
          </mxGeometry>
        </mxCell>
        <mxCell id="-Ae5Qsa0rawJSdzD_BRz-134" style="edgeStyle=orthogonalEdgeStyle;rounded=0;orthogonalLoop=1;jettySize=auto;html=1;exitX=0;exitY=0.25;exitDx=0;exitDy=0;entryX=1;entryY=0.5;entryDx=0;entryDy=0;" edge="1" parent="1" source="-Ae5Qsa0rawJSdzD_BRz-3" target="-Ae5Qsa0rawJSdzD_BRz-10">
          <mxGeometry relative="1" as="geometry">
            <Array as="points">
              <mxPoint x="350" y="845" />
              <mxPoint x="350" y="805" />
            </Array>
          </mxGeometry>
        </mxCell>
        <mxCell id="-Ae5Qsa0rawJSdzD_BRz-3" value="ESTANTERÍA" style="whiteSpace=wrap;html=1;" vertex="1" parent="1">
          <mxGeometry x="360" y="830" width="120" height="60" as="geometry" />
        </mxCell>
        <mxCell id="-Ae5Qsa0rawJSdzD_BRz-10" value="&lt;u&gt;id_estanteria&lt;/u&gt;" style="ellipse;whiteSpace=wrap;html=1;" vertex="1" parent="1">
          <mxGeometry x="240" y="790" width="90" height="30" as="geometry" />
        </mxCell>
        <mxCell id="-Ae5Qsa0rawJSdzD_BRz-11" value="ubicacion" style="ellipse;whiteSpace=wrap;html=1;" vertex="1" parent="1">
          <mxGeometry x="235" y="830" width="90" height="30" as="geometry" />
        </mxCell>
        <mxCell id="-Ae5Qsa0rawJSdzD_BRz-100" value="" style="edgeStyle=orthogonalEdgeStyle;rounded=0;orthogonalLoop=1;jettySize=auto;html=1;" edge="1" parent="1" source="-Ae5Qsa0rawJSdzD_BRz-22" target="-Ae5Qsa0rawJSdzD_BRz-30">
          <mxGeometry relative="1" as="geometry" />
        </mxCell>
        <mxCell id="-Ae5Qsa0rawJSdzD_BRz-22" value="FÍSICA" style="whiteSpace=wrap;html=1;" vertex="1" parent="1">
          <mxGeometry x="950" y="468" width="90" height="50" as="geometry" />
        </mxCell>
        <mxCell id="-Ae5Qsa0rawJSdzD_BRz-23" value="ONLINE" style="whiteSpace=wrap;html=1;" vertex="1" parent="1">
          <mxGeometry x="695" y="458" width="90" height="50" as="geometry" />
        </mxCell>
        <mxCell id="-Ae5Qsa0rawJSdzD_BRz-24" value="&lt;u&gt;Nº IP&lt;/u&gt;" style="ellipse;whiteSpace=wrap;html=1;" vertex="1" parent="1">
          <mxGeometry x="570" y="360" width="90" height="30" as="geometry" />
        </mxCell>
        <mxCell id="-Ae5Qsa0rawJSdzD_BRz-25" value="direccion" style="ellipse;whiteSpace=wrap;html=1;" vertex="1" parent="1">
          <mxGeometry x="570" y="402.5" width="90" height="27.5" as="geometry" />
        </mxCell>
        <mxCell id="-Ae5Qsa0rawJSdzD_BRz-26" value="hora" style="ellipse;whiteSpace=wrap;html=1;" vertex="1" parent="1">
          <mxGeometry x="570" y="440" width="90" height="30" as="geometry" />
        </mxCell>
        <mxCell id="-Ae5Qsa0rawJSdzD_BRz-30" value="&lt;u&gt;Nº caja&lt;/u&gt;" style="ellipse;whiteSpace=wrap;html=1;" vertex="1" parent="1">
          <mxGeometry x="1060" y="528" width="80" height="20" as="geometry" />
        </mxCell>
        <mxCell id="-Ae5Qsa0rawJSdzD_BRz-40" style="edgeStyle=orthogonalEdgeStyle;rounded=0;orthogonalLoop=1;jettySize=auto;html=1;" edge="1" parent="1" source="-Ae5Qsa0rawJSdzD_BRz-41" target="-Ae5Qsa0rawJSdzD_BRz-23">
          <mxGeometry relative="1" as="geometry" />
        </mxCell>
        <mxCell id="-Ae5Qsa0rawJSdzD_BRz-41" value="entrega" style="rhombus;whiteSpace=wrap;html=1;" vertex="1" parent="1">
          <mxGeometry x="390" y="480" width="80" height="50" as="geometry" />
        </mxCell>
        <mxCell id="-Ae5Qsa0rawJSdzD_BRz-42" value="&lt;u&gt;id_repartidor&lt;/u&gt;" style="ellipse;whiteSpace=wrap;html=1;" vertex="1" parent="1">
          <mxGeometry x="280" y="260" width="90" height="30" as="geometry" />
        </mxCell>
        <mxCell id="-Ae5Qsa0rawJSdzD_BRz-45" value="&lt;u&gt;nombre&lt;/u&gt;" style="ellipse;whiteSpace=wrap;html=1;" vertex="1" parent="1">
          <mxGeometry x="250" y="300" width="80" height="20" as="geometry" />
        </mxCell>
        <mxCell id="-Ae5Qsa0rawJSdzD_BRz-46" value="tlf" style="ellipse;whiteSpace=wrap;html=1;" vertex="1" parent="1">
          <mxGeometry x="250" y="330" width="80" height="20" as="geometry" />
        </mxCell>
        <mxCell id="-Ae5Qsa0rawJSdzD_BRz-129" style="edgeStyle=orthogonalEdgeStyle;rounded=0;orthogonalLoop=1;jettySize=auto;html=1;exitX=0.5;exitY=1;exitDx=0;exitDy=0;" edge="1" parent="1" source="-Ae5Qsa0rawJSdzD_BRz-57" target="-Ae5Qsa0rawJSdzD_BRz-41">
          <mxGeometry relative="1" as="geometry" />
        </mxCell>
        <mxCell id="-Ae5Qsa0rawJSdzD_BRz-57" value="REPARTIDOR" style="shape=ext;margin=3;double=1;whiteSpace=wrap;html=1;align=center;" vertex="1" parent="1">
          <mxGeometry x="380" y="330" width="100" height="60" as="geometry" />
        </mxCell>
        <mxCell id="-Ae5Qsa0rawJSdzD_BRz-132" style="edgeStyle=orthogonalEdgeStyle;rounded=0;orthogonalLoop=1;jettySize=auto;html=1;exitX=0;exitY=0.5;exitDx=0;exitDy=0;entryX=1;entryY=0.5;entryDx=0;entryDy=0;" edge="1" parent="1" source="-Ae5Qsa0rawJSdzD_BRz-102" target="-Ae5Qsa0rawJSdzD_BRz-3">
          <mxGeometry relative="1" as="geometry" />
        </mxCell>
        <mxCell id="-Ae5Qsa0rawJSdzD_BRz-102" value="Está" style="rhombus;whiteSpace=wrap;html=1;" vertex="1" parent="1">
          <mxGeometry x="580" y="875" width="80" height="80" as="geometry" />
        </mxCell>
        <mxCell id="-Ae5Qsa0rawJSdzD_BRz-136" style="edgeStyle=orthogonalEdgeStyle;rounded=0;orthogonalLoop=1;jettySize=auto;html=1;exitX=0.5;exitY=1;exitDx=0;exitDy=0;entryX=0.5;entryY=0;entryDx=0;entryDy=0;" edge="1" parent="1" source="-Ae5Qsa0rawJSdzD_BRz-107" target="-Ae5Qsa0rawJSdzD_BRz-120">
          <mxGeometry relative="1" as="geometry" />
        </mxCell>
        <mxCell id="-Ae5Qsa0rawJSdzD_BRz-143" style="edgeStyle=orthogonalEdgeStyle;rounded=0;orthogonalLoop=1;jettySize=auto;html=1;exitX=0.75;exitY=1;exitDx=0;exitDy=0;" edge="1" parent="1" source="-Ae5Qsa0rawJSdzD_BRz-107" target="-Ae5Qsa0rawJSdzD_BRz-135">
          <mxGeometry relative="1" as="geometry" />
        </mxCell>
        <mxCell id="-Ae5Qsa0rawJSdzD_BRz-107" value="CLIENTE" style="whiteSpace=wrap;html=1;" vertex="1" parent="1">
          <mxGeometry x="785" y="10" width="120" height="60" as="geometry" />
        </mxCell>
        <mxCell id="-Ae5Qsa0rawJSdzD_BRz-123" style="edgeStyle=orthogonalEdgeStyle;rounded=0;orthogonalLoop=1;jettySize=auto;html=1;exitX=1;exitY=1;exitDx=0;exitDy=0;entryX=1;entryY=0.5;entryDx=0;entryDy=0;" edge="1" parent="1" source="-Ae5Qsa0rawJSdzD_BRz-108" target="-Ae5Qsa0rawJSdzD_BRz-118">
          <mxGeometry relative="1" as="geometry" />
        </mxCell>
        <mxCell id="-Ae5Qsa0rawJSdzD_BRz-124" style="edgeStyle=orthogonalEdgeStyle;rounded=0;orthogonalLoop=1;jettySize=auto;html=1;exitX=1;exitY=1;exitDx=0;exitDy=0;entryX=1;entryY=0.5;entryDx=0;entryDy=0;" edge="1" parent="1" source="-Ae5Qsa0rawJSdzD_BRz-108" target="-Ae5Qsa0rawJSdzD_BRz-115">
          <mxGeometry relative="1" as="geometry" />
        </mxCell>
        <mxCell id="-Ae5Qsa0rawJSdzD_BRz-125" style="edgeStyle=orthogonalEdgeStyle;rounded=0;orthogonalLoop=1;jettySize=auto;html=1;exitX=1;exitY=1;exitDx=0;exitDy=0;entryX=1;entryY=0.5;entryDx=0;entryDy=0;" edge="1" parent="1" source="-Ae5Qsa0rawJSdzD_BRz-108" target="-Ae5Qsa0rawJSdzD_BRz-116">
          <mxGeometry relative="1" as="geometry" />
        </mxCell>
        <mxCell id="-Ae5Qsa0rawJSdzD_BRz-126" style="edgeStyle=orthogonalEdgeStyle;rounded=0;orthogonalLoop=1;jettySize=auto;html=1;exitX=1;exitY=1;exitDx=0;exitDy=0;entryX=1;entryY=0.5;entryDx=0;entryDy=0;" edge="1" parent="1" source="-Ae5Qsa0rawJSdzD_BRz-108" target="-Ae5Qsa0rawJSdzD_BRz-117">
          <mxGeometry relative="1" as="geometry" />
        </mxCell>
        <mxCell id="-Ae5Qsa0rawJSdzD_BRz-127" style="edgeStyle=orthogonalEdgeStyle;rounded=0;orthogonalLoop=1;jettySize=auto;html=1;exitX=1;exitY=1;exitDx=0;exitDy=0;entryX=1;entryY=0.5;entryDx=0;entryDy=0;" edge="1" parent="1" source="-Ae5Qsa0rawJSdzD_BRz-108" target="-Ae5Qsa0rawJSdzD_BRz-114">
          <mxGeometry relative="1" as="geometry" />
        </mxCell>
        <mxCell id="-Ae5Qsa0rawJSdzD_BRz-131" style="edgeStyle=orthogonalEdgeStyle;rounded=0;orthogonalLoop=1;jettySize=auto;html=1;exitX=0;exitY=0.75;exitDx=0;exitDy=0;entryX=0.5;entryY=0;entryDx=0;entryDy=0;" edge="1" parent="1" source="-Ae5Qsa0rawJSdzD_BRz-108" target="-Ae5Qsa0rawJSdzD_BRz-102">
          <mxGeometry relative="1" as="geometry" />
        </mxCell>
        <mxCell id="-Ae5Qsa0rawJSdzD_BRz-108" value="PRODUCTO" style="whiteSpace=wrap;html=1;" vertex="1" parent="1">
          <mxGeometry x="815" y="790" width="120" height="60" as="geometry" />
        </mxCell>
        <mxCell id="-Ae5Qsa0rawJSdzD_BRz-130" style="edgeStyle=orthogonalEdgeStyle;rounded=0;orthogonalLoop=1;jettySize=auto;html=1;exitX=1;exitY=0.5;exitDx=0;exitDy=0;entryX=0;entryY=0.25;entryDx=0;entryDy=0;" edge="1" parent="1" source="-Ae5Qsa0rawJSdzD_BRz-109" target="-Ae5Qsa0rawJSdzD_BRz-107">
          <mxGeometry relative="1" as="geometry" />
        </mxCell>
        <mxCell id="-Ae5Qsa0rawJSdzD_BRz-109" value="&lt;u&gt;nº tarjeta&lt;/u&gt;" style="ellipse;whiteSpace=wrap;html=1;" vertex="1" parent="1">
          <mxGeometry x="640" y="-30" width="90" height="30" as="geometry" />
        </mxCell>
        <mxCell id="-Ae5Qsa0rawJSdzD_BRz-110" value="direccion" style="ellipse;whiteSpace=wrap;html=1;" vertex="1" parent="1">
          <mxGeometry x="640" width="90" height="30" as="geometry" />
        </mxCell>
        <mxCell id="-Ae5Qsa0rawJSdzD_BRz-111" value="cod_postal" style="ellipse;whiteSpace=wrap;html=1;" vertex="1" parent="1">
          <mxGeometry x="640" y="30" width="90" height="30" as="geometry" />
        </mxCell>
        <mxCell id="-Ae5Qsa0rawJSdzD_BRz-112" value="teléfono" style="ellipse;whiteSpace=wrap;html=1;" vertex="1" parent="1">
          <mxGeometry x="640" y="60" width="90" height="30" as="geometry" />
        </mxCell>
        <mxCell id="-Ae5Qsa0rawJSdzD_BRz-113" value="familia" style="ellipse;whiteSpace=wrap;html=1;" vertex="1" parent="1">
          <mxGeometry x="640" y="90" width="90" height="30" as="geometry" />
        </mxCell>
        <mxCell id="-Ae5Qsa0rawJSdzD_BRz-114" value="peso" style="ellipse;whiteSpace=wrap;html=1;" vertex="1" parent="1">
          <mxGeometry x="797.5" y="1050" width="100" height="25" as="geometry" />
        </mxCell>
        <mxCell id="-Ae5Qsa0rawJSdzD_BRz-115" value="marca" style="ellipse;whiteSpace=wrap;html=1;" vertex="1" parent="1">
          <mxGeometry x="810" y="930" width="100" height="30" as="geometry" />
        </mxCell>
        <mxCell id="-Ae5Qsa0rawJSdzD_BRz-116" value="cantidad" style="ellipse;whiteSpace=wrap;html=1;" vertex="1" parent="1">
          <mxGeometry x="812.5" y="960" width="90" height="30" as="geometry" />
        </mxCell>
        <mxCell id="-Ae5Qsa0rawJSdzD_BRz-117" value="dimensiones" style="ellipse;whiteSpace=wrap;html=1;" vertex="1" parent="1">
          <mxGeometry x="810" y="1000" width="95" height="30" as="geometry" />
        </mxCell>
        <mxCell id="-Ae5Qsa0rawJSdzD_BRz-118" value="&lt;u&gt;id_producto&lt;/u&gt;" style="ellipse;whiteSpace=wrap;html=1;" vertex="1" parent="1">
          <mxGeometry x="810" y="900" width="100" height="30" as="geometry" />
        </mxCell>
        <mxCell id="-Ae5Qsa0rawJSdzD_BRz-120" value="realiza" style="rhombus;whiteSpace=wrap;html=1;" vertex="1" parent="1">
          <mxGeometry x="686" y="280" width="80" height="50" as="geometry" />
        </mxCell>
        <mxCell id="-Ae5Qsa0rawJSdzD_BRz-144" style="edgeStyle=orthogonalEdgeStyle;rounded=0;orthogonalLoop=1;jettySize=auto;html=1;exitX=0.5;exitY=1;exitDx=0;exitDy=0;entryX=1;entryY=0.25;entryDx=0;entryDy=0;" edge="1" parent="1" source="-Ae5Qsa0rawJSdzD_BRz-135" target="-Ae5Qsa0rawJSdzD_BRz-22">
          <mxGeometry relative="1" as="geometry" />
        </mxCell>
        <mxCell id="-Ae5Qsa0rawJSdzD_BRz-135" value="realiza" style="rhombus;whiteSpace=wrap;html=1;" vertex="1" parent="1">
          <mxGeometry x="1060" y="280" width="80" height="50" as="geometry" />
        </mxCell>
        <mxCell id="-Ae5Qsa0rawJSdzD_BRz-138" style="edgeStyle=orthogonalEdgeStyle;rounded=0;orthogonalLoop=1;jettySize=auto;html=1;exitX=0.25;exitY=0;exitDx=0;exitDy=0;entryX=0;entryY=0;entryDx=0;entryDy=0;" edge="1" parent="1" source="-Ae5Qsa0rawJSdzD_BRz-23" target="-Ae5Qsa0rawJSdzD_BRz-23">
          <mxGeometry relative="1" as="geometry" />
        </mxCell>
        <mxCell id="-Ae5Qsa0rawJSdzD_BRz-141" style="edgeStyle=orthogonalEdgeStyle;rounded=0;orthogonalLoop=1;jettySize=auto;html=1;exitX=0.5;exitY=1;exitDx=0;exitDy=0;entryX=0.367;entryY=0;entryDx=0;entryDy=0;entryPerimeter=0;" edge="1" parent="1" source="-Ae5Qsa0rawJSdzD_BRz-120" target="-Ae5Qsa0rawJSdzD_BRz-23">
          <mxGeometry relative="1" as="geometry" />
        </mxCell>
        <mxCell id="-Ae5Qsa0rawJSdzD_BRz-142" value="1:N" style="text;html=1;align=center;verticalAlign=middle;resizable=0;points=[];autosize=1;strokeColor=none;fillColor=none;" vertex="1" parent="1">
          <mxGeometry x="757.5" y="290" width="40" height="30" as="geometry" />
        </mxCell>
        <mxCell id="-Ae5Qsa0rawJSdzD_BRz-145" value="(1,1)" style="text;html=1;align=center;verticalAlign=middle;resizable=0;points=[];autosize=1;strokeColor=none;fillColor=none;" vertex="1" parent="1">
          <mxGeometry x="806" y="68" width="50" height="30" as="geometry" />
        </mxCell>
        <mxCell id="-Ae5Qsa0rawJSdzD_BRz-146" value="(0,1)" style="text;html=1;align=center;verticalAlign=middle;resizable=0;points=[];autosize=1;strokeColor=none;fillColor=none;" vertex="1" parent="1">
          <mxGeometry x="866" y="68" width="50" height="30" as="geometry" />
        </mxCell>
        <mxCell id="-Ae5Qsa0rawJSdzD_BRz-147" value="(0,n)" style="text;html=1;align=center;verticalAlign=middle;resizable=0;points=[];autosize=1;strokeColor=none;fillColor=none;" vertex="1" parent="1">
          <mxGeometry x="1034.99" y="450" width="50" height="30" as="geometry" />
        </mxCell>
        <mxCell id="-Ae5Qsa0rawJSdzD_BRz-148" value="1:N" style="text;html=1;align=center;verticalAlign=middle;resizable=0;points=[];autosize=1;strokeColor=none;fillColor=none;" vertex="1" parent="1">
          <mxGeometry x="1140" y="290" width="40" height="30" as="geometry" />
        </mxCell>
        <mxCell id="-Ae5Qsa0rawJSdzD_BRz-149" value="Cantidad" style="ellipse;whiteSpace=wrap;html=1;" vertex="1" parent="1">
          <mxGeometry x="725" y="710" width="90" height="40" as="geometry" />
        </mxCell>
        <mxCell id="-Ae5Qsa0rawJSdzD_BRz-162" style="edgeStyle=orthogonalEdgeStyle;rounded=0;orthogonalLoop=1;jettySize=auto;html=1;exitX=0.5;exitY=1;exitDx=0;exitDy=0;entryX=0.5;entryY=0;entryDx=0;entryDy=0;" edge="1" parent="1" source="-Ae5Qsa0rawJSdzD_BRz-151" target="-Ae5Qsa0rawJSdzD_BRz-161">
          <mxGeometry relative="1" as="geometry" />
        </mxCell>
        <mxCell id="-Ae5Qsa0rawJSdzD_BRz-151" value="COMPRA" style="whiteSpace=wrap;html=1;" vertex="1" parent="1">
          <mxGeometry x="815" y="600" width="120" height="60" as="geometry" />
        </mxCell>
        <mxCell id="-Ae5Qsa0rawJSdzD_BRz-153" style="edgeStyle=orthogonalEdgeStyle;rounded=0;orthogonalLoop=1;jettySize=auto;html=1;exitX=0.5;exitY=0;exitDx=0;exitDy=0;exitPerimeter=0;entryX=0.5;entryY=1;entryDx=0;entryDy=0;" edge="1" parent="1" source="-Ae5Qsa0rawJSdzD_BRz-152" target="-Ae5Qsa0rawJSdzD_BRz-22">
          <mxGeometry relative="1" as="geometry" />
        </mxCell>
        <mxCell id="-Ae5Qsa0rawJSdzD_BRz-155" style="edgeStyle=orthogonalEdgeStyle;rounded=0;orthogonalLoop=1;jettySize=auto;html=1;exitX=0.5;exitY=1;exitDx=0;exitDy=0;exitPerimeter=0;entryX=0.5;entryY=0;entryDx=0;entryDy=0;" edge="1" parent="1" source="-Ae5Qsa0rawJSdzD_BRz-152" target="-Ae5Qsa0rawJSdzD_BRz-151">
          <mxGeometry relative="1" as="geometry" />
        </mxCell>
        <mxCell id="-Ae5Qsa0rawJSdzD_BRz-152" value="IS A" style="strokeWidth=2;html=1;shape=mxgraph.flowchart.merge_or_storage;whiteSpace=wrap;" vertex="1" parent="1">
          <mxGeometry x="842.5" y="545" width="60" height="35" as="geometry" />
        </mxCell>
        <mxCell id="-Ae5Qsa0rawJSdzD_BRz-154" style="edgeStyle=orthogonalEdgeStyle;rounded=0;orthogonalLoop=1;jettySize=auto;html=1;exitX=0.5;exitY=0;exitDx=0;exitDy=0;exitPerimeter=0;entryX=0.644;entryY=1.04;entryDx=0;entryDy=0;entryPerimeter=0;" edge="1" parent="1" source="-Ae5Qsa0rawJSdzD_BRz-152" target="-Ae5Qsa0rawJSdzD_BRz-23">
          <mxGeometry relative="1" as="geometry" />
        </mxCell>
        <mxCell id="-Ae5Qsa0rawJSdzD_BRz-157" value="&lt;u&gt;Nº_compra&lt;/u&gt;" style="ellipse;whiteSpace=wrap;html=1;" vertex="1" parent="1">
          <mxGeometry x="1015" y="630" width="95" height="30" as="geometry" />
        </mxCell>
        <mxCell id="-Ae5Qsa0rawJSdzD_BRz-158" value="importe" style="ellipse;whiteSpace=wrap;html=1;" vertex="1" parent="1">
          <mxGeometry x="1017.5" y="720" width="90" height="30" as="geometry" />
        </mxCell>
        <mxCell id="-Ae5Qsa0rawJSdzD_BRz-159" value="fecha" style="ellipse;whiteSpace=wrap;html=1;" vertex="1" parent="1">
          <mxGeometry x="1010" y="660" width="100" height="30" as="geometry" />
        </mxCell>
        <mxCell id="-Ae5Qsa0rawJSdzD_BRz-160" value="hora" style="ellipse;whiteSpace=wrap;html=1;" vertex="1" parent="1">
          <mxGeometry x="1011.87" y="690" width="96.25" height="30" as="geometry" />
        </mxCell>
        <mxCell id="-Ae5Qsa0rawJSdzD_BRz-163" style="edgeStyle=orthogonalEdgeStyle;rounded=0;orthogonalLoop=1;jettySize=auto;html=1;exitX=0.5;exitY=1;exitDx=0;exitDy=0;entryX=0.5;entryY=0;entryDx=0;entryDy=0;" edge="1" parent="1" source="-Ae5Qsa0rawJSdzD_BRz-161" target="-Ae5Qsa0rawJSdzD_BRz-108">
          <mxGeometry relative="1" as="geometry" />
        </mxCell>
        <mxCell id="-Ae5Qsa0rawJSdzD_BRz-161" value="contiene" style="rhombus;whiteSpace=wrap;html=1;" vertex="1" parent="1">
          <mxGeometry x="835" y="700" width="80" height="50" as="geometry" />
        </mxCell>
        <mxCell id="-Ae5Qsa0rawJSdzD_BRz-164" value="(0,n)" style="text;html=1;align=center;verticalAlign=middle;resizable=0;points=[];autosize=1;strokeColor=none;fillColor=none;" vertex="1" parent="1">
          <mxGeometry x="716" y="428" width="50" height="30" as="geometry" />
        </mxCell>
      </root>
    </mxGraphModel>
  </diagram>
</mxfile>
